<svg width="1735" height="603" viewBox="0 0 1735 603" fill="none" xmlns="http://www.w3.org/2000/svg">
<path d="M248.5 602.592C214.96 602.592 182.415 596.02 151.767 583.057C122.174 570.54 95.6001 552.624 72.784 529.808C49.9677 506.992 32.0523 480.418 19.5355 450.825C6.57271 420.178 0 387.632 0 354.092C0 320.553 6.57271 288.007 19.5355 257.36C32.0523 227.766 49.9677 201.192 72.784 178.376C95.6001 155.56 122.174 137.645 151.767 125.128C182.415 112.165 214.96 105.592 248.5 105.592C282.04 105.592 314.585 112.165 345.233 125.128C374.826 137.645 401.4 155.56 424.216 178.376C447.032 201.192 464.948 227.766 477.465 257.36C490.427 288.007 497 320.553 497 354.092C497 387.632 490.427 420.178 477.465 450.825C464.948 480.418 447.032 506.992 424.216 529.808C401.4 552.624 374.826 570.54 345.233 583.057C314.585 596.02 282.04 602.592 248.5 602.592Z" fill="white"/>
<path d="M248.5 585.259C376.17 585.259 479.667 481.763 479.667 354.093C479.667 226.423 376.17 122.926 248.5 122.926C120.83 122.926 17.3335 226.423 17.3335 354.093C17.3335 481.763 120.83 585.259 248.5 585.259Z" fill="white"/>
<path d="M479.824 353.957C479.824 374.713 477.088 394.833 471.961 413.972C413.875 388.681 367.011 342.435 340.922 284.784V253.12L324.664 228.131L322.237 224.403L318.912 219.294L307.387 201.579V130.197C311.345 131.234 315.263 132.374 319.136 133.616C320.173 133.947 321.206 134.287 322.237 134.634C323.746 135.142 325.25 135.662 326.744 136.2C329.129 137.058 331.496 137.953 333.844 138.886C337.815 140.461 341.732 142.147 345.593 143.934C424.848 180.634 479.824 260.876 479.824 353.957Z" fill="#0A0846"/>
<path d="M340.683 186.925C344.6 186.925 347.774 183.75 347.774 179.834C347.774 175.917 344.6 172.743 340.683 172.743C336.767 172.743 333.592 175.917 333.592 179.834C333.592 183.75 336.767 186.925 340.683 186.925Z" fill="white"/>
<path d="M411.908 256.889C414.258 256.889 416.163 254.984 416.163 252.634C416.163 250.285 414.258 248.38 411.908 248.38C409.558 248.38 407.653 250.285 407.653 252.634C407.653 254.984 409.558 256.889 411.908 256.889Z" fill="white"/>
<path d="M437.751 305.108C440.1 305.108 442.005 303.203 442.005 300.853C442.005 298.503 440.1 296.599 437.751 296.599C435.401 296.599 433.496 298.503 433.496 300.853C433.496 303.203 435.401 305.108 437.751 305.108Z" fill="white"/>
<path d="M411.908 331.896C414.258 331.896 416.163 329.992 416.163 327.642C416.163 325.292 414.258 323.387 411.908 323.387C409.558 323.387 407.653 325.292 407.653 327.642C407.653 329.992 409.558 331.896 411.908 331.896Z" fill="white"/>
<path d="M391.896 235.774C379.712 235.774 369.835 245.651 369.835 257.835C369.835 245.651 359.958 235.774 347.774 235.774C359.958 235.774 369.835 225.897 369.835 213.713C369.835 225.897 379.712 235.774 391.896 235.774Z" fill="white"/>
<path d="M411.751 283.677C402.352 283.677 394.732 291.296 394.732 300.695C394.732 291.296 387.113 283.677 377.714 283.677C387.113 283.677 394.732 276.058 394.732 266.659C394.732 276.058 402.352 283.677 411.751 283.677Z" fill="white"/>
<path d="M457.416 453.395C455.15 458.157 452.72 462.828 450.139 467.404C400.622 438.268 361.785 392.923 340.922 338.66V308.143C360.225 369.926 402.343 421.631 457.416 453.395Z" fill="url(#paint0_linear_1124_205)"/>
<path d="M465.862 433.285C463.357 440.146 460.539 446.855 457.416 453.395C402.343 421.63 360.225 369.926 340.922 308.143V306.848C366.093 362.466 410.596 407.471 465.862 433.285Z" fill="url(#paint1_linear_1124_205)"/>
<path d="M329.271 570.79C318.572 574.777 307.5 577.991 296.12 580.374C282.773 583.166 269.007 584.808 254.923 585.193V296.57H256.064C255.541 304.916 255.276 313.333 255.276 321.811C255.276 375.107 265.755 425.954 284.765 472.408V473.401C295.225 508.1 310.299 540.8 329.271 570.79Z" fill="url(#paint2_linear_1124_205)"/>
<path d="M284.765 437.621V472.408C265.755 425.954 255.276 375.107 255.276 321.811C255.276 313.333 255.541 304.916 256.064 296.57H265.991L269.146 326.267C269.143 326.33 269.143 326.393 269.143 326.456V326.854C269.143 365.293 274.595 402.459 284.765 437.621Z" fill="url(#paint3_linear_1124_205)"/>
<path d="M375.82 547.119C366.652 553.176 357.024 558.6 347.005 563.318C346.139 562.149 345.281 560.976 344.427 559.798C343.573 558.616 342.729 557.434 341.887 556.246C341.468 555.65 341.049 555.055 340.633 554.459C340.264 553.933 339.899 553.406 339.53 552.877C339.369 552.644 339.205 552.407 339.048 552.174C338.748 551.739 338.449 551.301 338.149 550.863C336.917 549.06 335.701 547.245 334.5 545.42C333.296 543.596 332.108 541.758 330.936 539.911C330.624 539.417 330.308 538.922 329.996 538.427C329.877 538.238 329.76 538.052 329.643 537.863C329.297 537.311 328.953 536.76 328.61 536.205C328.225 535.584 327.844 534.964 327.463 534.343C327.097 533.75 326.738 533.154 326.375 532.559C325.89 531.762 325.411 530.961 324.935 530.157C323.901 528.421 322.88 526.678 321.872 524.923C321.865 524.916 321.862 524.91 321.859 524.904C320.772 523.01 319.697 521.106 318.638 519.193C318.323 518.626 318.011 518.055 317.699 517.485C317.472 517.075 317.248 516.662 317.028 516.25C316.766 515.774 316.508 515.298 316.256 514.819C316 514.349 315.748 513.876 315.499 513.404C315.187 512.821 314.878 512.234 314.57 511.648C314.488 511.497 314.409 511.346 314.33 511.194C314.04 510.637 313.747 510.076 313.457 509.515C313.12 508.862 312.786 508.213 312.452 507.561C312.118 506.908 311.787 506.253 311.456 505.597C310.848 504.39 310.246 503.177 309.65 501.96C309.574 501.815 309.505 501.67 309.433 501.522C308.812 500.249 308.194 498.973 307.586 497.693C307.293 497.079 307.003 496.467 306.716 495.853C306.672 495.764 306.631 495.676 306.59 495.588C306.297 494.961 306.004 494.334 305.714 493.703C305.405 493.035 305.096 492.367 304.793 491.699C304.513 491.084 304.233 490.467 303.955 489.852C303.892 489.714 303.832 489.578 303.769 489.439C303.508 488.85 303.246 488.264 302.984 487.674C302.698 487.028 302.414 486.379 302.13 485.733C301.796 484.967 301.465 484.198 301.134 483.426C300.583 482.14 300.038 480.848 299.499 479.553C298.651 477.514 297.816 475.462 297.003 473.404C296.741 472.742 296.48 472.081 296.218 471.416C296.205 471.378 296.19 471.343 296.177 471.305C295.916 470.631 295.651 469.953 295.392 469.272C295.128 468.582 294.866 467.892 294.604 467.202C294.352 466.531 294.1 465.859 293.851 465.188C293.539 464.353 293.234 463.515 292.928 462.676C292.72 462.103 292.512 461.526 292.307 460.949C292.058 460.253 291.809 459.553 291.563 458.857C291.05 457.397 290.545 455.935 290.047 454.467C289.644 453.272 289.247 452.071 288.853 450.871C288.547 449.947 288.248 449.017 287.952 448.088C287.803 447.628 287.658 447.168 287.513 446.704C287.305 446.055 287.104 445.406 286.905 444.757C286.719 444.17 286.54 443.584 286.363 442.998C286.328 442.891 286.297 442.787 286.265 442.683C286.089 442.103 285.916 441.52 285.742 440.94C285.569 440.366 285.399 439.796 285.232 439.222C285.074 438.69 284.92 438.157 284.765 437.621C274.595 402.46 269.143 365.293 269.143 326.854V326.457C269.146 326.425 269.149 326.391 269.153 326.359V326.346C269.206 325.675 269.26 325.01 269.32 324.339C280.457 410.203 318.972 487.476 375.82 547.119Z" fill="url(#paint4_linear_1124_205)"/>
<path d="M401.845 527.154C395.936 532.392 389.752 537.33 383.323 541.95C323.541 476.688 285.247 391.426 279.631 297.361L293.989 313.147L304.853 325.089C307.721 342.816 311.764 360.15 316.895 377.011C334.055 433.386 363.393 484.453 401.845 527.154Z" fill="#0A0846"/>
<path d="M436.572 488.667C430.801 496.71 424.523 504.371 417.785 511.601C375.274 474.652 340.686 428.825 316.895 377.011C311.764 360.15 307.72 342.816 304.853 325.089L323.087 345.139C349.384 401.394 388.457 450.48 436.572 488.667Z" fill="url(#paint5_linear_1124_205)"/>
<path d="M417.786 511.601C412.727 517.034 407.408 522.225 401.845 527.154C363.393 484.454 334.055 433.386 316.895 377.011C340.686 428.825 375.274 474.652 417.786 511.601Z" fill="url(#paint6_linear_1124_205)"/>
<path d="M39.583 453.395C41.849 458.157 44.2788 462.828 46.8599 467.404C96.3772 438.268 135.214 392.923 156.077 338.66V308.143C136.774 369.926 94.6564 421.631 39.583 453.395Z" fill="url(#paint7_linear_1124_205)"/>
<path d="M31.1372 433.285C33.6427 440.146 36.4601 446.855 39.5833 453.395C94.6567 421.63 136.774 369.926 156.077 308.143V306.848C130.906 362.466 86.4028 407.471 31.1372 433.285Z" fill="url(#paint8_linear_1124_205)"/>
<path d="M167.729 570.79C178.429 574.777 189.5 577.991 200.88 580.374C214.227 583.166 227.993 584.808 242.077 585.193V296.57H240.936C241.46 304.916 241.724 313.333 241.724 321.811C241.724 375.107 231.245 425.954 212.235 472.408V473.401C201.775 508.1 186.701 540.8 167.729 570.79Z" fill="url(#paint9_linear_1124_205)"/>
<path d="M212.235 437.621V472.408C231.245 425.954 241.724 375.107 241.724 321.811C241.724 313.333 241.459 304.916 240.936 296.57H231.009L227.854 326.267C227.857 326.33 227.857 326.393 227.857 326.456V326.854C227.857 365.293 222.405 402.459 212.235 437.621Z" fill="url(#paint10_linear_1124_205)"/>
<path d="M121.18 547.119C130.348 553.176 139.976 558.6 149.995 563.318C150.861 562.149 151.719 560.976 152.573 559.798C153.427 558.616 154.271 557.434 155.113 556.246C155.532 555.65 155.951 555.055 156.367 554.459C156.736 553.933 157.102 553.406 157.47 552.877C157.631 552.644 157.795 552.407 157.952 552.174C158.252 551.739 158.551 551.301 158.851 550.863C160.083 549.06 161.299 547.245 162.5 545.42C163.704 543.596 164.892 541.758 166.065 539.911C166.377 539.417 166.692 538.922 167.004 538.427C167.124 538.238 167.24 538.052 167.357 537.863C167.703 537.311 168.047 536.76 168.39 536.205C168.775 535.584 169.156 534.964 169.538 534.343C169.903 533.75 170.262 533.154 170.625 532.559C171.11 531.762 171.589 530.961 172.065 530.157C173.099 528.421 174.12 526.678 175.128 524.923C175.135 524.916 175.138 524.91 175.141 524.904C176.228 523.01 177.303 521.106 178.362 519.193C178.677 518.626 178.989 518.055 179.301 517.485C179.528 517.075 179.752 516.662 179.972 516.25C180.234 515.774 180.492 515.298 180.745 514.819C181 514.349 181.252 513.876 181.501 513.404C181.813 512.821 182.122 512.234 182.431 511.648C182.513 511.497 182.591 511.346 182.67 511.194C182.96 510.637 183.253 510.076 183.543 509.515C183.88 508.862 184.214 508.213 184.548 507.561C184.883 506.908 185.213 506.253 185.544 505.597C186.153 504.39 186.755 503.177 187.35 501.96C187.426 501.815 187.495 501.67 187.568 501.522C188.189 500.249 188.806 498.973 189.414 497.693C189.708 497.079 189.998 496.467 190.284 495.853C190.328 495.764 190.369 495.676 190.41 495.588C190.703 494.961 190.997 494.334 191.286 493.703C191.595 493.035 191.904 492.367 192.207 491.699C192.487 491.084 192.768 490.467 193.045 489.852C193.108 489.714 193.168 489.578 193.231 489.439C193.493 488.85 193.754 488.264 194.016 487.674C194.303 487.028 194.586 486.379 194.87 485.733C195.204 484.967 195.535 484.198 195.866 483.426C196.417 482.14 196.962 480.848 197.501 479.553C198.349 477.514 199.184 475.462 199.997 473.404C200.259 472.742 200.521 472.081 200.782 471.416C200.795 471.378 200.81 471.343 200.823 471.305C201.085 470.631 201.349 469.953 201.608 469.272C201.873 468.582 202.134 467.892 202.396 467.202C202.648 466.531 202.9 465.859 203.149 465.188C203.461 464.353 203.767 463.515 204.072 462.676C204.28 462.103 204.488 461.526 204.693 460.949C204.942 460.253 205.191 459.553 205.437 458.857C205.951 457.397 206.455 455.935 206.953 454.467C207.356 453.272 207.753 452.071 208.147 450.871C208.453 449.947 208.752 449.017 209.049 448.088C209.197 447.628 209.342 447.168 209.487 446.704C209.695 446.055 209.896 445.406 210.095 444.757C210.281 444.17 210.461 443.584 210.637 442.998C210.672 442.891 210.703 442.787 210.735 442.683C210.911 442.103 211.085 441.52 211.258 440.94C211.431 440.366 211.601 439.796 211.768 439.222C211.926 438.69 212.08 438.157 212.235 437.621C222.405 402.46 227.857 365.293 227.857 326.854V326.457C227.854 326.425 227.851 326.391 227.848 326.359V326.346C227.794 325.675 227.741 325.01 227.681 324.339C216.543 410.203 178.028 487.476 121.18 547.119Z" fill="url(#paint11_linear_1124_205)"/>
<path d="M95.1548 527.154C101.064 532.392 107.247 537.33 113.676 541.95C173.458 476.688 211.753 391.426 217.369 297.361L203.01 313.147L192.147 325.089C189.279 342.816 185.236 360.15 180.105 377.011C162.945 433.386 133.607 484.453 95.1548 527.154Z" fill="#0A0846"/>
<path d="M60.4272 488.667C66.1978 496.71 72.4756 504.371 79.2137 511.601C121.725 474.652 156.313 428.825 180.104 377.011C185.235 360.15 189.279 342.816 192.146 325.089L173.912 345.139C147.615 401.394 108.542 450.48 60.4272 488.667Z" fill="url(#paint12_linear_1124_205)"/>
<path d="M79.2139 511.601C84.2721 517.034 89.592 522.225 95.1544 527.154C133.607 484.454 162.944 433.386 180.105 377.011C156.313 428.825 121.725 474.652 79.2139 511.601Z" fill="url(#paint13_linear_1124_205)"/>
<path d="M17.1763 353.957C17.1763 374.713 19.9118 394.833 25.0394 413.972C83.1257 388.681 129.989 342.435 156.078 284.784V253.12L172.337 228.131L174.763 224.403L178.088 219.294L189.614 201.579V130.197C185.655 131.234 181.738 132.374 177.865 133.616C176.828 133.947 175.794 134.287 174.763 134.634C173.254 135.142 171.751 135.662 170.257 136.2C167.871 137.058 165.504 137.953 163.156 138.886C159.185 140.461 155.268 142.147 151.407 143.934C72.1519 180.634 17.1763 260.876 17.1763 353.957Z" fill="#0A0846"/>
<path d="M156.318 186.925C160.234 186.925 163.409 183.75 163.409 179.834C163.409 175.917 160.234 172.743 156.318 172.743C152.401 172.743 149.227 175.917 149.227 179.834C149.227 183.75 152.401 186.925 156.318 186.925Z" fill="white"/>
<path d="M85.0925 256.889C87.4422 256.889 89.3471 254.984 89.3471 252.634C89.3471 250.285 87.4422 248.38 85.0925 248.38C82.7427 248.38 80.8379 250.285 80.8379 252.634C80.8379 254.984 82.7427 256.889 85.0925 256.889Z" fill="white"/>
<path d="M59.2497 305.108C61.5995 305.108 63.5043 303.203 63.5043 300.853C63.5043 298.503 61.5995 296.599 59.2497 296.599C56.9 296.599 54.9951 298.503 54.9951 300.853C54.9951 303.203 56.9 305.108 59.2497 305.108Z" fill="white"/>
<path d="M85.0925 331.896C87.4422 331.896 89.3471 329.991 89.3471 327.641C89.3471 325.292 87.4422 323.387 85.0925 323.387C82.7427 323.387 80.8379 325.292 80.8379 327.641C80.8379 329.991 82.7427 331.896 85.0925 331.896Z" fill="white"/>
<path d="M105.104 235.774C117.288 235.774 127.165 245.651 127.165 257.835C127.165 245.651 137.042 235.774 149.226 235.774C137.042 235.774 127.165 225.897 127.165 213.713C127.165 225.897 117.288 235.774 105.104 235.774Z" fill="white"/>
<path d="M85.2495 283.677C94.6485 283.677 102.268 291.296 102.268 300.695C102.268 291.296 109.887 283.677 119.286 283.677C109.887 283.677 102.268 276.058 102.268 266.659C102.268 276.058 94.6485 283.677 85.2495 283.677Z" fill="white"/>
<path d="M322.958 256.902V318.429L284.159 275.864H212.84L174.041 318.429V256.902L207.577 205.361V113.314C207.577 113.314 215.251 69.8442 248.5 29.3467C281.749 69.8442 289.423 113.314 289.423 113.314V205.361L322.958 256.902Z" fill="#0A0846"/>
<path d="M261.421 169.749V275.798H248.5V156.985H248.658C255.708 156.985 261.421 162.699 261.421 169.749Z" fill="url(#paint14_linear_1124_205)"/>
<path d="M235.579 169.749V275.798H248.5V156.985H248.342C241.292 156.985 235.579 162.699 235.579 169.749Z" fill="url(#paint15_linear_1124_205)"/>
<path d="M248.5 120.111C257.899 120.111 265.518 112.492 265.518 103.093C265.518 93.6941 257.899 86.0747 248.5 86.0747C239.101 86.0747 231.481 93.6941 231.481 103.093C231.481 112.492 239.101 120.111 248.5 120.111Z" fill="white"/>
<path d="M156.708 251.759L190.535 199.77C191.341 183.592 190.715 170.256 190.108 157.323C189.167 137.277 188.278 118.343 193.904 96.5056C199.917 73.1656 212.44 49.2981 234.508 19.1161L248.485 0L262.482 19.102C284.257 48.8195 297.165 73.4241 303.102 96.5342C308.725 118.417 307.837 137.407 306.897 157.511C306.295 170.406 305.673 183.703 306.467 199.773L340.292 251.759V363.176L276.506 293.198H220.494L156.708 363.176V251.759Z" fill="white"/>
<path d="M322.958 256.902V318.429L284.159 275.864H212.84L174.041 318.429V256.902L207.577 205.361C212.282 132.387 188.513 111.388 248.5 29.3467C308.438 111.146 284.759 132.655 289.423 205.361L322.958 256.902Z" fill="#0A0846"/>
<path d="M261.421 169.749V275.798H248.5V156.985H248.657C255.707 156.985 261.421 162.699 261.421 169.749Z" fill="url(#paint16_linear_1124_205)"/>
<path d="M235.578 169.749V275.798H248.499V156.985H248.342C241.292 156.985 235.578 162.699 235.578 169.749Z" fill="url(#paint17_linear_1124_205)"/>
<path d="M248.5 120.111C257.899 120.111 265.518 112.492 265.518 103.093C265.518 93.6941 257.899 86.0747 248.5 86.0747C239.101 86.0747 231.481 93.6941 231.481 103.093C231.481 112.492 239.101 120.111 248.5 120.111Z" fill="white"/>
<mask id="mask0_1124_205" style="mask-type:alpha" maskUnits="userSpaceOnUse" x="551" y="138" width="1184" height="431">
<path d="M618.911 323.996C608.3 323.996 598.8 322.101 590.413 318.311C582.024 314.521 574.899 309.292 569.039 302.622C563.177 295.952 558.706 288.195 555.625 279.353C552.54 270.513 551 260.988 551 250.78C551 245.424 551.455 240.018 552.366 234.56C553.276 229.104 554.487 223.948 556.004 219.099L580.56 223.798C579.448 228.649 578.64 233.196 578.135 237.44C577.627 241.685 577.378 245.576 577.378 249.112C577.378 258.814 579.095 266.95 582.531 273.518C585.966 280.087 590.766 285.037 596.93 288.372C603.095 291.707 610.321 293.376 618.609 293.376C627.098 293.376 634.472 291.682 640.74 288.298C647.004 284.911 651.881 280.036 655.368 273.668C658.855 267.303 660.598 259.624 660.598 250.628V193.329L686.823 197.271V250.628C686.823 260.836 685.281 270.386 682.198 279.279C679.115 288.169 674.644 295.952 668.784 302.622C662.922 309.292 655.772 314.521 647.334 318.311C638.896 322.101 629.422 323.996 618.911 323.996ZM653.625 272.002C644.629 272.002 636.773 270.133 630.054 266.394C623.331 262.655 618.127 257.677 614.441 251.461C610.75 245.246 608.907 238.403 608.907 230.923C608.907 224.86 610.044 219.302 612.318 214.248C614.591 209.196 617.799 204.774 621.944 200.984C626.087 197.194 630.86 194.238 636.267 192.117C641.673 189.994 647.509 188.932 653.775 188.932C659.841 188.932 665.751 189.818 671.512 191.586C677.273 193.354 682.373 195.249 686.823 197.271L676.211 224.403C667.42 220.262 659.94 218.19 653.775 218.19C649.935 218.19 646.653 218.771 643.923 219.932C641.195 221.095 639.074 222.612 637.557 224.479C636.041 226.351 635.284 228.296 635.284 230.316C635.284 232.134 635.965 233.877 637.329 235.546C638.693 237.212 640.74 238.604 643.468 239.714C646.196 240.828 649.582 241.382 653.625 241.382H678.484V272.002H653.625ZM640.74 175.442C637.304 175.442 634.499 174.38 632.328 172.259C630.154 170.136 629.069 167.408 629.069 164.073C629.069 160.639 630.154 157.834 632.328 155.66C634.499 153.489 637.304 152.399 640.74 152.399C644.075 152.399 646.826 153.489 649.003 155.66C651.174 157.834 652.261 160.639 652.261 164.073C652.261 167.408 651.174 170.136 649.003 172.259C646.826 174.38 644.075 175.442 640.74 175.442ZM667.115 175.442C663.679 175.442 660.875 174.38 658.703 172.259C656.529 170.136 655.444 167.408 655.444 164.073C655.444 160.639 656.529 157.834 658.703 155.66C660.875 153.489 663.679 152.399 667.115 152.399C670.45 152.399 673.18 153.489 675.302 155.66C677.425 157.834 678.484 160.639 678.484 164.073C678.484 167.408 677.425 170.136 675.302 172.259C673.18 174.38 670.45 175.442 667.115 175.442Z" fill="white"/>
<path d="M705.619 272.002V241.382H766.253V272.002H705.619ZM727.145 272.002V178.472H753.52V272.002H727.145ZM760.038 272.002C759.128 272.002 758.395 270.587 757.841 267.758C757.284 264.93 757.007 261.189 757.007 256.541C757.007 251.992 757.284 248.331 757.841 245.551C758.395 242.772 759.128 241.382 760.038 241.382V272.002ZM760.038 272.002V241.382H767.617C771.458 241.382 774.414 241.002 776.487 240.245C778.555 239.488 779.972 238.198 780.731 236.379C781.488 234.56 781.866 231.982 781.866 228.649V138H808.244V228.649C808.244 237.643 806.626 245.375 803.393 251.842C800.157 258.309 795.509 263.262 789.446 266.696C783.383 270.133 776.106 271.903 767.617 272.002H760.038ZM822.491 272.002C814.002 272.002 806.728 270.285 800.665 266.848C794.6 263.414 789.951 258.436 786.718 251.916C783.482 245.398 781.866 237.643 781.866 228.649H808.244C808.244 231.982 808.646 234.56 809.456 236.379C810.264 238.198 811.678 239.488 813.7 240.245C815.72 241.002 818.651 241.382 822.491 241.382H826.131V272.002H822.491ZM826.131 272.002V241.382C827.04 241.382 827.772 242.772 828.328 245.551C828.882 248.331 829.161 251.992 829.161 256.541C829.161 261.189 828.882 264.93 828.328 267.758C827.772 270.587 827.04 272.002 826.131 272.002Z" fill="white"/>
<path d="M827.04 272.002C826.131 272.002 825.399 270.615 824.841 267.834C824.287 265.055 824.008 261.291 824.008 256.541C824.008 251.992 824.287 248.331 824.841 245.551C825.399 242.772 826.131 241.382 827.04 241.382V272.002ZM827.04 272.002V241.382H835.529V272.002H827.04ZM835.529 272.002V241.382H963.923V272.002H835.529ZM849.929 253.356V138H876.306V232.589L849.929 253.356ZM937.545 272.002V232.741C937.545 227.588 936.585 223.32 934.667 219.932C932.745 216.547 930.093 214.019 926.707 212.353C923.321 210.684 919.509 209.851 915.264 209.851C911.119 209.851 906.926 210.61 902.681 212.125C898.437 213.641 894.393 215.764 890.555 218.492C886.713 221.22 883.302 224.608 880.322 228.649C877.34 232.691 874.965 237.24 873.197 242.292C871.429 247.346 870.545 252.853 870.545 258.814H855.841C855.841 254.166 856.243 249.036 857.053 243.427C857.861 237.819 859.151 232.086 860.919 226.224C862.687 220.364 865.036 214.703 867.967 209.244C870.898 203.788 874.487 198.888 878.731 194.542C882.976 190.197 887.952 186.735 893.662 184.157C899.37 181.581 905.963 180.293 913.443 180.293C922.031 180.293 929.511 181.708 935.879 184.538C942.246 187.367 947.499 191.233 951.644 196.133C955.787 201.037 958.869 206.618 960.89 212.884C962.912 219.15 963.923 225.769 963.923 232.741V272.002H937.545ZM956.494 272.002V241.382H981.507V272.002H956.494ZM981.507 272.002V241.382C982.315 241.382 983.021 242.772 983.628 245.551C984.235 248.331 984.537 251.992 984.537 256.541C984.537 261.189 984.235 264.93 983.628 267.758C983.021 270.587 982.315 272.002 981.507 272.002Z" fill="white"/>
<path d="M981.507 272.002C980.598 272.002 979.866 270.614 979.308 267.834C978.754 265.055 978.475 261.29 978.475 256.541C978.475 251.992 978.754 248.331 979.308 245.55C979.866 242.771 980.598 241.382 981.507 241.382V272.002ZM1005 192.419H1031.38V272.002H981.507V241.382H1005V192.419ZM1018.19 175.744C1013.95 175.744 1010.46 174.38 1007.73 171.652C1005 168.924 1003.64 165.437 1003.64 161.192C1003.64 156.948 1005 153.461 1007.73 150.733C1010.46 148.005 1013.95 146.641 1018.19 146.641C1022.53 146.641 1026.05 148.005 1028.73 150.733C1031.4 153.461 1032.74 156.948 1032.74 161.192C1032.74 165.437 1031.4 168.924 1028.73 171.652C1026.05 174.38 1022.53 175.744 1018.19 175.744Z" fill="white"/>
<path d="M1051.69 272.002V241.382H1154.32V272.002H1051.69ZM1073.22 272.002V178.472H1099.59V272.002H1073.22ZM1127.94 272.002V138H1154.32V272.002H1127.94Z" fill="white"/>
<path d="M1177.05 272.002V138H1203.43V272.002H1177.05Z" fill="white"/>
<path d="M1311.2 265.18C1305.34 265.18 1299.73 264.423 1294.38 262.907C1289.02 261.39 1284.27 259.068 1280.13 255.934C1275.99 252.802 1272.73 248.911 1270.35 244.263C1267.98 239.614 1266.79 234.207 1266.79 228.043C1266.79 221.07 1268.38 214.88 1271.57 209.473C1274.75 204.067 1279.17 199.569 1284.83 195.981C1290.49 192.396 1297.11 189.64 1304.69 187.72C1312.27 185.802 1320.45 184.741 1329.24 184.538L1329.7 210.306C1323.94 210.407 1318.81 210.89 1314.31 211.746C1309.82 212.607 1305.98 213.819 1302.79 215.386C1299.61 216.953 1297.21 218.822 1295.59 220.994C1293.97 223.168 1293.17 225.566 1293.17 228.193C1293.17 230.519 1293.82 232.541 1295.14 234.258C1296.45 235.977 1298.45 237.265 1301.13 238.124C1303.8 238.982 1307.06 239.412 1310.9 239.412C1314.54 239.412 1317.93 239.008 1321.06 238.198C1324.19 237.39 1327.22 236.28 1330.15 234.863L1342.43 257.601C1337.68 260.128 1332.63 262.023 1327.27 263.285C1321.92 264.55 1316.56 265.18 1311.2 265.18ZM1295.44 166.649C1292.01 166.649 1289.2 165.589 1287.03 163.466C1284.85 161.345 1283.77 158.615 1283.77 155.28C1283.77 151.845 1284.85 149.041 1287.03 146.867C1289.2 144.695 1292.01 143.608 1295.44 143.608C1298.78 143.608 1301.53 144.695 1303.7 146.867C1305.87 149.041 1306.96 151.845 1306.96 155.28C1306.96 158.615 1305.87 161.345 1303.7 163.466C1301.53 165.589 1298.78 166.649 1295.44 166.649ZM1321.82 166.649C1318.38 166.649 1315.58 165.589 1313.4 163.466C1311.23 161.345 1310.15 158.615 1310.15 155.28C1310.15 151.845 1311.23 149.041 1313.4 146.867C1315.58 144.695 1318.38 143.608 1321.82 143.608C1325.15 143.608 1327.88 144.695 1330 146.867C1332.12 149.041 1333.19 151.845 1333.19 155.28C1333.19 158.615 1332.12 161.345 1330 163.466C1327.88 165.589 1325.15 166.649 1321.82 166.649ZM1367.75 272.002C1359.26 272.002 1351.98 270.285 1345.92 266.848C1339.86 263.414 1335.21 258.436 1331.97 251.916C1328.74 245.398 1327.12 237.644 1327.12 228.649V179.686H1353.5V228.649C1353.5 231.982 1353.88 234.56 1354.64 236.379C1355.39 238.198 1356.81 239.488 1358.88 240.245C1360.95 241.002 1363.9 241.382 1367.75 241.382H1373.05V272.002H1367.75ZM1373.05 272.002V241.382C1373.86 241.382 1374.57 242.772 1375.17 245.551C1375.78 248.332 1376.08 251.992 1376.08 256.541C1376.08 261.189 1375.78 264.93 1375.17 267.758C1374.57 270.587 1373.86 272.002 1373.05 272.002Z" fill="white"/>
<path d="M1373.05 272.002C1372.14 272.002 1371.41 270.587 1370.85 267.757C1370.3 264.93 1370.02 261.189 1370.02 256.541C1370.02 251.992 1370.3 248.331 1370.85 245.55C1371.41 242.772 1372.14 241.382 1373.05 241.382V272.002ZM1373.05 272.002V241.382H1381.69C1385.53 241.382 1388.46 241.002 1390.48 240.244C1392.51 239.487 1393.92 238.197 1394.73 236.379C1395.54 234.56 1395.94 231.982 1395.94 228.649V199.846H1422.32V228.649C1422.32 237.643 1420.67 245.398 1417.39 251.916C1414.11 258.436 1409.46 263.414 1403.44 266.848C1397.43 270.285 1390.18 272.002 1381.69 272.002H1373.05ZM1436.57 272.002C1429.69 272.002 1423.81 270.285 1418.91 266.848C1414 263.414 1410.29 258.436 1407.77 251.916C1405.24 245.398 1403.98 237.643 1403.98 228.649H1422.32C1422.32 231.982 1422.7 234.56 1423.45 236.379C1424.21 238.197 1425.63 239.487 1427.7 240.244C1429.77 241.002 1432.72 241.382 1436.57 241.382H1538.43V272.002H1436.57ZM1512.06 272.002V232.741C1512.06 227.588 1511.09 223.32 1509.18 219.932C1507.25 216.546 1504.6 214.019 1501.22 212.353C1497.83 210.684 1493.97 209.851 1489.62 209.851C1485.58 209.851 1481.44 210.61 1477.19 212.124C1472.95 213.641 1468.9 215.764 1465.07 218.492C1461.22 221.22 1457.79 224.608 1454.76 228.649C1451.73 232.691 1449.32 237.239 1447.56 242.292C1445.79 247.346 1444.9 252.853 1444.9 258.814H1422.92C1422.92 254.166 1423.35 249.063 1424.21 243.503C1425.07 237.948 1426.54 232.21 1428.61 226.298C1430.68 220.387 1433.33 214.702 1436.57 209.244C1439.8 203.788 1443.82 198.888 1448.62 194.542C1453.42 190.196 1459.08 186.735 1465.6 184.157C1472.11 181.581 1479.52 180.293 1487.8 180.293C1496.49 180.293 1504 181.708 1510.31 184.537C1516.63 187.367 1521.86 191.233 1526 196.133C1530.14 201.037 1533.25 206.618 1535.32 212.884C1537.39 219.15 1538.43 225.769 1538.43 232.741V272.002H1512.06ZM1526 272.002V241.382H1555.86V272.002H1526ZM1555.86 272.002V241.382C1556.77 241.382 1557.51 242.772 1558.06 245.55C1558.62 248.331 1558.9 251.992 1558.9 256.541C1558.9 261.189 1558.62 264.93 1558.06 267.757C1557.51 270.587 1556.77 272.002 1555.86 272.002Z" fill="white"/>
<path d="M1555.87 272.002C1554.96 272.002 1554.23 270.587 1553.67 267.757C1553.11 264.93 1552.83 261.189 1552.83 256.541C1552.83 251.992 1553.11 248.331 1553.67 245.55C1554.23 242.771 1554.96 241.382 1555.87 241.382V272.002ZM1555.87 272.002V241.382H1564.51C1568.35 241.382 1571.28 241.001 1573.3 240.244C1575.32 239.487 1576.73 238.197 1577.54 236.379C1578.35 234.56 1578.76 231.982 1578.76 228.649V192.419H1605.13V228.649C1605.13 237.643 1603.49 245.375 1600.2 251.842C1596.92 258.309 1592.27 263.261 1586.26 266.696C1580.25 270.132 1573 271.902 1564.51 272.002H1555.87ZM1589.97 175.744C1585.73 175.744 1582.24 174.38 1579.51 171.652C1576.79 168.924 1575.42 165.437 1575.42 161.192C1575.42 156.948 1576.79 153.461 1579.51 150.733C1582.24 148.005 1585.73 146.641 1589.97 146.641C1594.32 146.641 1597.83 148.005 1600.51 150.733C1603.18 153.461 1604.52 156.948 1604.52 161.192C1604.52 165.437 1603.18 168.924 1600.51 171.652C1597.83 174.38 1594.32 175.744 1589.97 175.744ZM1619.38 272.002C1610.89 272.002 1603.62 270.285 1597.55 266.848C1591.49 263.414 1586.84 258.436 1583.61 251.916C1580.37 245.398 1578.76 237.643 1578.76 228.649H1605.13C1605.13 231.982 1605.51 234.56 1606.27 236.379C1607.03 238.197 1608.44 239.487 1610.51 240.244C1612.58 241.001 1615.54 241.382 1619.38 241.382H1624.53V272.002H1619.38ZM1624.53 272.002V241.382C1625.44 241.382 1626.18 242.771 1626.73 245.55C1627.29 248.331 1627.57 251.992 1627.57 256.541C1627.57 261.189 1627.29 264.93 1626.73 267.757C1626.18 270.587 1625.44 272.002 1624.53 272.002Z" fill="white"/>
<path d="M1624.54 272.002C1623.63 272.002 1622.89 270.587 1622.34 267.758C1621.78 264.93 1621.5 261.189 1621.5 256.541C1621.5 251.992 1621.78 248.331 1622.34 245.55C1622.89 242.772 1623.63 241.382 1624.54 241.382V272.002ZM1624.54 272.002V241.382C1628.58 241.382 1632.04 240.828 1634.92 239.714C1637.8 238.604 1640.5 236.757 1643.03 234.182C1645.55 231.604 1648.23 228.245 1651.06 224.1C1653.69 220.463 1656.52 216.775 1659.55 213.034C1662.58 209.297 1665.97 205.835 1669.71 202.65C1673.45 199.468 1677.61 196.917 1682.21 194.997C1686.81 193.077 1692.04 192.117 1697.9 192.117C1703.66 192.117 1708.82 193.328 1713.36 195.754C1717.91 198.18 1721.78 201.54 1724.96 205.835C1728.14 210.13 1730.57 215.21 1732.24 221.07C1733.9 226.932 1734.74 233.348 1734.74 240.321C1734.74 246.183 1734.03 252.371 1732.62 258.89C1731.2 265.408 1729.23 271.395 1726.7 276.853L1701.24 266.696C1703.56 262.655 1705.33 258.385 1706.54 253.887C1707.76 249.391 1708.36 244.867 1708.36 240.321C1708.36 234.055 1707.4 229.482 1705.48 226.602C1703.56 223.722 1700.88 222.282 1697.45 222.282C1695.12 222.282 1692.62 223.016 1689.95 224.479C1687.27 225.947 1684.46 228.144 1681.53 231.073C1678.6 234.006 1675.52 237.743 1672.28 242.292C1667.43 249.264 1662.66 254.925 1657.96 259.269C1653.26 263.615 1648.26 266.825 1642.95 268.895C1637.65 270.968 1631.51 272.002 1624.54 272.002ZM1725.19 246.231L1726.7 276.853C1716.3 277.458 1707.28 277.384 1699.65 276.625C1692.02 275.868 1685.35 274.527 1679.64 272.609C1673.93 270.691 1668.85 268.212 1664.4 265.18C1659.95 262.149 1655.81 258.613 1651.97 254.57L1669.1 236.531C1672.44 239.968 1676.61 242.469 1681.61 244.034C1686.61 245.601 1692.7 246.485 1699.87 246.686C1707.05 246.891 1715.49 246.739 1725.19 246.231Z" fill="white"/>
<path d="M551 524.413V366.995H589.048V493.512H654.535V524.413H551Z" fill="white"/>
<path d="M708.794 526.41C701.261 526.41 694.586 525.144 688.771 522.608C682.955 520.072 678.367 516.228 675.012 511.076C671.655 505.929 669.978 499.457 669.978 491.669C669.978 485.11 671.131 479.578 673.437 475.066C675.741 470.557 678.919 466.893 682.967 464.073C687.014 461.257 691.679 459.118 696.955 457.655C702.234 456.197 707.871 455.211 713.866 454.697C720.579 454.083 725.985 453.427 730.086 452.738C734.184 452.044 737.167 451.046 739.039 449.738C740.909 448.434 741.845 446.575 741.845 444.169V443.784C741.845 439.836 740.487 436.79 737.771 434.634C735.056 432.482 731.391 431.409 726.779 431.409C721.809 431.409 717.812 432.482 714.79 434.634C711.765 436.79 709.843 439.761 709.024 443.55L674.358 442.322C675.384 435.148 678.035 428.731 682.313 423.069C686.592 417.408 692.485 412.95 699.993 409.695C707.499 406.44 716.53 404.811 727.088 404.811C734.619 404.811 741.563 405.697 747.918 407.464C754.271 409.231 759.804 411.797 764.519 415.152C769.234 418.507 772.884 422.622 775.472 427.49C778.06 432.357 779.354 437.914 779.354 444.169V524.413H743.997V507.964H743.075C740.974 511.962 738.296 515.342 735.043 518.108C731.788 520.878 727.972 522.951 723.591 524.338C719.208 525.721 714.276 526.41 708.794 526.41ZM720.401 501.814C724.447 501.814 728.099 500.995 731.354 499.357C734.606 497.715 737.207 495.45 739.154 492.551C741.101 489.66 742.075 486.288 742.075 482.444V471.222C740.999 471.786 739.706 472.3 738.193 472.759C736.683 473.223 735.028 473.658 733.236 474.067C731.441 474.476 729.597 474.836 727.702 475.145C725.805 475.45 723.986 475.734 722.246 475.989C718.709 476.553 715.698 477.422 713.212 478.6C710.726 479.783 708.832 481.308 707.526 483.175C706.218 485.047 705.564 487.261 705.564 489.823C705.564 493.721 706.96 496.691 709.755 498.739C712.546 500.79 716.095 501.814 720.401 501.814Z" fill="white"/>
<path d="M879.732 473.453V406.349H917.241V524.413H881.422V502.428H880.192C877.578 509.656 873.133 515.38 866.857 519.608C860.58 523.836 853.007 525.951 844.143 525.951C836.098 525.951 829.027 524.104 822.929 520.415C816.831 516.725 812.091 511.565 808.709 504.926C805.326 498.292 803.609 490.516 803.559 481.6V406.349H841.145V474.222C841.195 480.627 842.887 485.674 846.219 489.363C849.549 493.052 854.085 494.899 859.823 494.899C863.563 494.899 866.932 494.063 869.93 492.401C872.928 490.733 875.311 488.302 877.079 485.097C878.846 481.897 879.732 478.015 879.732 473.453Z" fill="white"/>
<path d="M980.028 457.079V524.413H942.442V406.349H978.184V428.024H979.492C982.105 420.801 986.563 415.127 992.866 410.999C999.168 406.875 1006.67 404.811 1015.39 404.811C1023.69 404.811 1030.9 406.67 1037.02 410.385C1043.15 414.103 1047.91 419.276 1051.32 425.91C1054.73 432.549 1056.4 440.3 1056.35 449.161V524.413H1018.77V456.544C1018.82 449.984 1017.17 444.858 1013.81 441.169C1010.45 437.479 1005.8 435.637 999.86 435.637C995.913 435.637 992.442 436.493 989.444 438.211C986.446 439.928 984.142 442.376 982.527 445.552C980.912 448.727 980.079 452.571 980.028 457.079Z" fill="white"/>
<path d="M1136.13 526.644C1123.68 526.644 1113.01 524.079 1104.12 518.956C1095.23 513.834 1088.4 506.698 1083.63 497.548C1078.87 488.402 1076.48 477.806 1076.48 465.765C1076.48 453.674 1078.88 443.053 1083.67 433.907C1088.46 424.757 1095.3 417.625 1104.19 412.499C1113.08 407.376 1123.7 404.811 1136.05 404.811C1146.97 404.811 1156.49 406.787 1164.61 410.731C1172.73 414.68 1179.08 420.249 1183.67 427.448C1188.26 434.651 1190.68 443.091 1190.93 452.775H1155.81C1155.09 446.73 1153.05 441.992 1149.7 438.557C1146.34 435.123 1141.97 433.406 1136.59 433.406C1132.24 433.406 1128.42 434.626 1125.14 437.057C1121.86 439.493 1119.31 443.078 1117.49 447.82C1115.67 452.558 1114.76 458.412 1114.76 465.381C1114.76 472.35 1115.67 478.233 1117.49 483.021C1119.31 487.813 1121.86 491.427 1125.14 493.859C1128.42 496.294 1132.24 497.51 1136.59 497.51C1140.08 497.51 1143.16 496.767 1145.86 495.283C1148.54 493.796 1150.76 491.607 1152.5 488.711C1154.24 485.816 1155.35 482.294 1155.81 478.141H1190.93C1190.57 487.876 1188.16 496.382 1183.67 503.66C1179.18 510.939 1172.91 516.587 1164.84 520.607C1156.77 524.63 1147.2 526.644 1136.13 526.644Z" fill="white"/>
<path d="M1249.12 457.079V524.413H1211.53V366.995H1247.88V428.024H1249.19C1251.86 420.75 1256.22 415.064 1262.3 410.961C1268.37 406.862 1275.81 404.811 1284.63 404.811C1292.93 404.811 1300.15 406.645 1306.3 410.309C1312.45 413.974 1317.23 419.138 1320.64 425.798C1324.04 432.457 1325.72 440.245 1325.67 449.161V524.413H1288.09V456.544C1288.14 449.984 1286.49 444.858 1283.16 441.169C1279.83 437.479 1275.15 435.637 1269.1 435.637C1265.15 435.637 1261.68 436.493 1258.68 438.211C1255.69 439.928 1253.35 442.376 1251.69 445.552C1250.02 448.727 1249.17 452.571 1249.12 457.079Z" fill="white"/>
<path d="M1350.33 568.688V406.349H1387.54V426.566H1388.69C1390.22 422.977 1392.42 419.522 1395.26 416.188C1398.1 412.858 1401.74 410.13 1406.18 408.003C1410.61 405.876 1415.92 404.811 1422.12 404.811C1430.32 404.811 1438 406.967 1445.14 411.27C1452.29 415.574 1458.07 422.209 1462.48 431.179C1466.88 440.145 1469.09 451.572 1469.09 465.46C1469.09 478.834 1466.97 490.031 1462.75 499.048C1458.52 508.068 1452.83 514.833 1445.68 519.341C1438.53 523.849 1430.6 526.105 1421.89 526.105C1415.95 526.105 1410.8 525.132 1406.44 523.185C1402.09 521.238 1398.44 518.676 1395.49 515.497C1392.54 512.322 1390.28 508.912 1388.69 505.273H1387.92V568.688H1350.33ZM1387.15 465.381C1387.15 471.736 1388.01 477.272 1389.73 481.984C1391.44 486.697 1393.92 490.349 1397.18 492.935C1400.43 495.526 1404.34 496.821 1408.9 496.821C1413.52 496.821 1417.43 495.526 1420.66 492.935C1423.89 490.349 1426.34 486.697 1428.01 481.984C1429.67 477.272 1430.5 471.736 1430.5 465.381C1430.5 459.03 1429.67 453.519 1428.01 448.856C1426.34 444.194 1423.9 440.58 1420.7 438.018C1417.5 435.457 1413.57 434.175 1408.9 434.175C1404.29 434.175 1400.37 435.432 1397.14 437.943C1393.92 440.454 1391.44 444.039 1389.73 448.702C1388.01 453.365 1387.15 458.926 1387.15 465.381Z" fill="white"/>
<path d="M1523.42 526.41C1515.89 526.41 1509.21 525.144 1503.4 522.608C1497.58 520.072 1493 516.228 1489.64 511.076C1486.29 505.929 1484.61 499.457 1484.61 491.669C1484.61 485.11 1485.76 479.578 1488.06 475.066C1490.37 470.557 1493.55 466.893 1497.6 464.073C1501.64 461.257 1506.31 459.118 1511.58 457.655C1516.86 456.197 1522.5 455.211 1528.5 454.697C1535.21 454.083 1540.61 453.427 1544.71 452.738C1548.81 452.044 1551.8 451.046 1553.67 449.738C1555.54 448.434 1556.47 446.575 1556.47 444.169V443.784C1556.47 439.836 1555.11 436.79 1552.4 434.634C1549.68 432.482 1546.02 431.409 1541.41 431.409C1536.43 431.409 1532.44 432.482 1529.42 434.634C1526.39 436.79 1524.47 439.761 1523.65 443.55L1488.99 442.322C1490.01 435.148 1492.66 428.731 1496.94 423.069C1501.22 417.408 1507.11 412.95 1514.62 409.695C1522.12 406.44 1531.16 404.811 1541.72 404.811C1549.25 404.811 1556.19 405.697 1562.54 407.464C1568.9 409.231 1574.43 411.797 1579.15 415.152C1583.86 418.507 1587.51 422.622 1590.1 427.49C1592.69 432.357 1593.98 437.914 1593.98 444.169V524.413H1558.62V507.964H1557.7C1555.6 511.962 1552.93 515.342 1549.67 518.108C1546.42 520.878 1542.6 522.951 1538.22 524.338C1533.84 525.721 1528.91 526.41 1523.42 526.41ZM1535.03 501.814C1539.08 501.814 1542.73 500.995 1545.98 499.357C1549.24 497.715 1551.83 495.45 1553.78 492.551C1555.73 489.66 1556.7 486.288 1556.7 482.444V471.222C1555.63 471.786 1554.33 472.3 1552.82 472.759C1551.31 473.223 1549.66 473.658 1547.87 474.067C1546.07 474.476 1544.23 474.836 1542.33 475.145C1540.43 475.45 1538.62 475.734 1536.87 475.989C1533.34 476.553 1530.33 477.422 1527.84 478.6C1525.35 479.783 1523.46 481.308 1522.15 483.175C1520.85 485.047 1520.19 487.261 1520.19 489.823C1520.19 493.721 1521.59 496.691 1524.38 498.739C1527.18 500.79 1530.72 501.814 1535.03 501.814Z" fill="white"/>
<path d="M1661.31 526.105C1652.6 526.105 1644.68 523.849 1637.56 519.341C1630.44 514.833 1624.75 508.068 1620.49 499.048C1616.24 490.031 1614.11 478.834 1614.11 465.46C1614.11 451.572 1616.32 440.145 1620.73 431.179C1625.13 422.209 1630.91 415.574 1638.06 411.27C1645.21 406.967 1652.91 404.811 1661.16 404.811C1667.36 404.811 1672.66 405.876 1677.07 408.003C1681.47 410.13 1685.11 412.858 1687.98 416.188C1690.85 419.522 1693.03 422.977 1694.52 426.566H1695.29V366.995H1732.87V524.413H1695.67V505.273H1694.52C1692.93 508.912 1690.67 512.322 1687.75 515.497C1684.83 518.676 1681.18 521.238 1676.8 523.185C1672.42 525.132 1667.26 526.105 1661.31 526.105ZM1674.38 496.821C1678.94 496.821 1682.83 495.526 1686.06 492.935C1689.29 490.349 1691.77 486.697 1693.51 481.984C1695.26 477.272 1696.13 471.736 1696.13 465.381C1696.13 458.926 1695.27 453.365 1693.56 448.702C1691.84 444.039 1689.35 440.454 1686.1 437.943C1682.84 435.432 1678.94 434.175 1674.38 434.175C1669.71 434.175 1665.77 435.457 1662.54 438.018C1659.31 440.58 1656.86 444.194 1655.2 448.856C1653.53 453.519 1652.7 459.03 1652.7 465.381C1652.7 471.736 1653.55 477.272 1655.24 481.984C1656.93 486.697 1659.38 490.349 1662.58 492.935C1665.78 495.526 1669.71 496.821 1674.38 496.821Z" fill="white"/>
</mask>
<g mask="url(#mask0_1124_205)">
<rect x="550.553" y="54.9834" width="1204.19" height="598.524" fill="white"/>
</g>
<defs>
<linearGradient id="paint0_linear_1124_205" x1="471.423" y1="416.906" x2="321.294" y2="359.277" gradientUnits="userSpaceOnUse">
<stop stop-color="#8B1880"/>
<stop offset="0.713965" stop-color="#EF6095"/>
</linearGradient>
<linearGradient id="paint1_linear_1124_205" x1="433.182" y1="440.259" x2="374.054" y2="306.169" gradientUnits="userSpaceOnUse">
<stop stop-color="#DA2C82"/>
<stop offset="1" stop-color="#EF6095"/>
</linearGradient>
<linearGradient id="paint2_linear_1124_205" x1="298.163" y1="629.86" x2="264.638" y2="343.191" gradientUnits="userSpaceOnUse">
<stop stop-color="#421383"/>
<stop offset="0.028683" stop-color="#4A1783"/>
<stop offset="0.195318" stop-color="#782C88"/>
<stop offset="0.362499" stop-color="#9E3D8B"/>
<stop offset="0.527693" stop-color="#BC4B8E"/>
<stop offset="0.690332" stop-color="#D15590"/>
<stop offset="0.849207" stop-color="#DD5B91"/>
<stop offset="1" stop-color="#E25D92"/>
</linearGradient>
<linearGradient id="paint3_linear_1124_205" x1="279.96" y1="472.998" x2="258.264" y2="296.3" gradientUnits="userSpaceOnUse">
<stop stop-color="#E44286"/>
<stop offset="0.454929" stop-color="#EB558F"/>
<stop offset="0.809497" stop-color="#EF6095"/>
</linearGradient>
<linearGradient id="paint4_linear_1124_205" x1="322.482" y1="563.318" x2="322.482" y2="324.339" gradientUnits="userSpaceOnUse">
<stop stop-color="#8B1880"/>
<stop offset="0.114218" stop-color="#9D2483"/>
<stop offset="0.426075" stop-color="#C9448D"/>
<stop offset="0.668243" stop-color="#E45892"/>
<stop offset="0.809497" stop-color="#EF6095"/>
</linearGradient>
<linearGradient id="paint5_linear_1124_205" x1="411.329" y1="514.342" x2="327.005" y2="315.686" gradientUnits="userSpaceOnUse">
<stop stop-color="#DA2C82"/>
<stop offset="1" stop-color="#EF6095"/>
</linearGradient>
<linearGradient id="paint6_linear_1124_205" x1="340.018" y1="480.564" x2="381.414" y2="425.629" gradientUnits="userSpaceOnUse">
<stop offset="0.129609" stop-color="#8B1880"/>
<stop offset="1" stop-color="#EF6095"/>
</linearGradient>
<linearGradient id="paint7_linear_1124_205" x1="25.5761" y1="416.906" x2="175.705" y2="359.276" gradientUnits="userSpaceOnUse">
<stop stop-color="#8B1880"/>
<stop offset="0.713965" stop-color="#EF6095"/>
</linearGradient>
<linearGradient id="paint8_linear_1124_205" x1="63.8169" y1="440.258" x2="122.945" y2="306.169" gradientUnits="userSpaceOnUse">
<stop stop-color="#DA2C82"/>
<stop offset="1" stop-color="#EF6095"/>
</linearGradient>
<linearGradient id="paint9_linear_1124_205" x1="198.837" y1="629.86" x2="232.362" y2="343.191" gradientUnits="userSpaceOnUse">
<stop stop-color="#421383"/>
<stop offset="0.028683" stop-color="#4A1783"/>
<stop offset="0.195318" stop-color="#782C88"/>
<stop offset="0.362499" stop-color="#9E3D8B"/>
<stop offset="0.527693" stop-color="#BC4B8E"/>
<stop offset="0.690332" stop-color="#D15590"/>
<stop offset="0.849207" stop-color="#DD5B91"/>
<stop offset="1" stop-color="#E25D92"/>
</linearGradient>
<linearGradient id="paint10_linear_1124_205" x1="217.04" y1="472.998" x2="238.736" y2="296.3" gradientUnits="userSpaceOnUse">
<stop stop-color="#E44286"/>
<stop offset="0.454929" stop-color="#EB558F"/>
<stop offset="0.809497" stop-color="#EF6095"/>
</linearGradient>
<linearGradient id="paint11_linear_1124_205" x1="174.519" y1="563.318" x2="174.519" y2="324.339" gradientUnits="userSpaceOnUse">
<stop stop-color="#8B1880"/>
<stop offset="0.114218" stop-color="#9D2483"/>
<stop offset="0.426075" stop-color="#C9448D"/>
<stop offset="0.668243" stop-color="#E45892"/>
<stop offset="0.809497" stop-color="#EF6095"/>
</linearGradient>
<linearGradient id="paint12_linear_1124_205" x1="85.67" y1="514.342" x2="169.994" y2="315.686" gradientUnits="userSpaceOnUse">
<stop stop-color="#DA2C82"/>
<stop offset="1" stop-color="#EF6095"/>
</linearGradient>
<linearGradient id="paint13_linear_1124_205" x1="156.982" y1="480.564" x2="115.585" y2="425.629" gradientUnits="userSpaceOnUse">
<stop offset="0.129609" stop-color="#8B1880"/>
<stop offset="1" stop-color="#EF6095"/>
</linearGradient>
<linearGradient id="paint14_linear_1124_205" x1="254.961" y1="275.798" x2="254.961" y2="156.985" gradientUnits="userSpaceOnUse">
<stop stop-color="#B6297D"/>
<stop offset="1" stop-color="#F15C8C"/>
</linearGradient>
<linearGradient id="paint15_linear_1124_205" x1="242.039" y1="275.798" x2="242.039" y2="156.985" gradientUnits="userSpaceOnUse">
<stop stop-color="#63197F"/>
<stop offset="1" stop-color="#B82182"/>
</linearGradient>
<linearGradient id="paint16_linear_1124_205" x1="254.96" y1="275.798" x2="254.96" y2="156.985" gradientUnits="userSpaceOnUse">
<stop stop-color="#B6297D"/>
<stop offset="1" stop-color="#F15C8C"/>
</linearGradient>
<linearGradient id="paint17_linear_1124_205" x1="242.039" y1="275.798" x2="242.039" y2="156.985" gradientUnits="userSpaceOnUse">
<stop stop-color="#63197F"/>
<stop offset="1" stop-color="#B82182"/>
</linearGradient>
</defs>
</svg>
